{
  "accessors": [
    {
      "bufferView": 2,
      "componentType": 5126,
      "count": 9485,
      "max": [
        30.568115234375,
        158.81784057617188,
        19.786382675170898
      ],
      "min": [
        -13.253226280212402,
        93.946403503417969,
        -22.583646774291992
      ],
      "type": "VEC3"
    },
    {
      "bufferView": 2,
      "byteOffset": 113820,
      "componentType": 5126,
      "count": 9485,
      "max": [
        0.99934744834899902,
        0.999176025390625,
        0.99944156408309937
      ],
      "min": [
        -0.99994271993637085,
        -0.99990981817245483,
        -0.99993503093719482
      ],
      "type": "VEC3"
    },
    {
      "bufferView": 3,
      "componentType": 5126,
      "count": 9485,
      "max": [
        0.99969190359115601,
        0.99564409255981445,
        0.99989426136016846,
        1
      ],
      "min": [
        -0.99998539686203003,
        -0.99224662780761719,
        -0.99987286329269409,
        -1
      ],
      "type": "VEC4"
    },
    {
      "bufferView": 1,
      "componentType": 5126,
      "count": 9485,
      "max": [
        0.96916139125823975,
        0.94152957201004028
      ],
      "min": [
        0.030838608741760254,
        0.093678951263427734
      ],
      "type": "VEC2"
    },
    {
      "bufferView": 1,
      "byteOffset": 75880,
      "componentType": 5126,
      "count": 9485,
      "max": [
        0.96916139125823975,
        0.94152957201004028
      ],
      "min": [
        0.030838608741760254,
        0.093678951263427734
      ],
      "type": "VEC2"
    },
    {
      "bufferView": 1,
      "byteOffset": 151760,
      "componentType": 5126,
      "count": 9485,
      "max": [
        0.96916139125823975,
        0.94152957201004028
      ],
      "min": [
        0.030838608741760254,
        0.093678951263427734
      ],
      "type": "VEC2"
    },
    {
      "bufferView": 0,
      "componentType": 5125,
      "count": 52308,
      "max": [
        9484
      ],
      "min": [
        0
      ],
      "type": "SCALAR"
    },
    {
      "bufferView": 2,
      "byteOffset": 227640,
      "componentType": 5126,
      "count": 9605,
      "max": [
        28.891218185424805,
        120.735107421875,
        22.040754318237305
      ],
      "min": [
        -17.012762069702148,
        75.126060485839844,
        -18.160789489746094
      ],
      "type": "VEC3"
    },
    {
      "bufferView": 2,
      "byteOffset": 342900,
      "componentType": 5126,
      "count": 9605,
      "max": [
        0.99999332427978516,
        0.85322451591491699,
        0.99985677003860474
      ],
      "min": [
        -0.99996006488800049,
        -0.55260425806045532,
        -0.99980199337005615
      ],
      "type": "VEC3"
    },
    {
      "bufferView": 3,
      "byteOffset": 151760,
      "componentType": 5126,
      "count": 9605,
      "max": [
        0.99999260902404785,
        0.37185680866241455,
        0.99973732233047485,
        1
      ],
      "min": [
        -0.99994540214538574,
        -0.55875092744827271,
        -0.99989032745361328,
        -1
      ],
      "type": "VEC4"
    },
    {
      "bufferView": 1,
      "byteOffset": 227640,
      "componentType": 5126,
      "count": 9605,
      "max": [
        0.97907024621963501,
        0.95235610008239746
      ],
      "min": [
        0.018176885321736336,
        0.05745977908372879
      ],
      "type": "VEC2"
    },
    {
      "bufferView": 1,
      "byteOffset": 304480,
      "componentType": 5126,
      "count": 9605,
      "max": [
        0.97907024621963501,
        0.95235610008239746
      ],
      "min": [
        0.018176885321736336,
        0.05745977908372879
      ],
      "type": "VEC2"
    },
    {
      "bufferView": 1,
      "byteOffset": 381320,
      "componentType": 5126,
      "count": 9605,
      "max": [
        0.97907024621963501,
        0.95235610008239746
      ],
      "min": [
        0.018176885321736336,
        0.05745977908372879
      ],
      "type": "VEC2"
    },
    {
      "bufferView": 0,
      "byteOffset": 209232,
      "componentType": 5125,
      "count": 51054,
      "max": [
        9604
      ],
      "min": [
        0
      ],
      "type": "SCALAR"
    }
  ],
  "asset": {
    "extras": {
      "author": "takeru1124 (https://sketchfab.com/takeru1124)",
      "license": "CC-BY-4.0 (http://creativecommons.org/licenses/by/4.0/)",
      "source": "https://sketchfab.com/3d-models/hoodie-and-skirt-3a3d8d3fc80c42baab590a63b180a65e",
      "title": "hoodie and skirt"
    },
    "generator": "Sketchfab-9.90.0",
    "version": "2.0"
  },
  "bufferViews": [
    {
      "buffer": 0,
      "byteLength": 413448,
      "byteOffset": 0,
      "name": "floatBufferViews",
      "target": 34963
    },
    {
      "buffer": 0,
      "byteLength": 458160,
      "byteOffset": 413448,
      "byteStride": 8,
      "name": "floatBufferViews",
      "target": 34962
    },
    {
      "buffer": 0,
      "byteLength": 458160,
      "byteOffset": 871608,
      "byteStride": 12,
      "name": "floatBufferViews",
      "target": 34962
    },
    {
      "buffer": 0,
      "byteLength": 305440,
      "byteOffset": 1329768,
      "byteStride": 16,
      "name": "floatBufferViews",
      "target": 34962
    }
  ],
  "buffers": [
    {
      "byteLength": 1635208,
      "uri": "scene.bin"
    }
  ],
  "images": [
    {
      "uri": "textures/parker_baseColor.png"
    },
    {
      "uri": "textures/parker_metallicRoughness.png"
    },
    {
      "uri": "textures/parker_normal.png"
    },
    {
      "uri": "textures/skirt_baseColor.png"
    },
    {
      "uri": "textures/skirt_metallicRoughness.png"
    },
    {
      "uri": "textures/skirt_normal.png"
    }
  ],
  "materials": [
    {
      "doubleSided": true,
      "emissiveFactor": [
        0,
        0,
        0
      ],
      "name": "parker",
      "normalTexture": {
        "index": 2,
        "scale": 1,
        "texCoord": 0
      },
      "occlusionTexture": {
        "index": 1,
        "strength": 1,
        "texCoord": 0
      },
      "pbrMetallicRoughness": {
        "baseColorFactor": [
          1,
          1,
          1,
          1
        ],
        "baseColorTexture": {
          "index": 0,
          "texCoord": 0
        },
        "metallicFactor": 1,
        "metallicRoughnessTexture": {
          "index": 1,
          "texCoord": 0
        },
        "roughnessFactor": 1
      }
    },
    {
      "doubleSided": true,
      "emissiveFactor": [
        0,
        0,
        0
      ],
      "name": "skirt",
      "normalTexture": {
        "index": 5,
        "scale": 1,
        "texCoord": 0
      },
      "occlusionTexture": {
        "index": 4,
        "strength": 1,
        "texCoord": 0
      },
      "pbrMetallicRoughness": {
        "baseColorFactor": [
          1,
          1,
          1,
          1
        ],
        "baseColorTexture": {
          "index": 3,
          "texCoord": 0
        },
        "metallicFactor": 1,
        "metallicRoughnessTexture": {
          "index": 4,
          "texCoord": 0
        },
        "roughnessFactor": 1
      }
    }
  ],
  "meshes": [
    {
      "name": "polySurface46_parker_0",
      "primitives": [
        {
          "attributes": {
            "NORMAL": 1,
            "POSITION": 0,
            "TANGENT": 2,
            "TEXCOORD_0": 3,
            "TEXCOORD_1": 4,
            "TEXCOORD_2": 5
          },
          "indices": 6,
          "material": 0,
          "mode": 4
        }
      ]
    },
    {
      "name": "polySurface21_skirt_0",
      "primitives": [
        {
          "attributes": {
            "NORMAL": 8,
            "POSITION": 7,
            "TANGENT": 9,
            "TEXCOORD_0": 10,
            "TEXCOORD_1": 11,
            "TEXCOORD_2": 12
          },
          "indices": 13,
          "material": 1,
          "mode": 4
        }
      ]
    }
  ],
  "nodes": [
    {
      "children": [
        1
      ],
      "name": "RootNode (gltf orientation matrix)",
      "rotation": [
        -0.70710678118654746,
        -0,
        -0,
        0.70710678118654757
      ]
    },
    {
      "children": [
        2
      ],
      "name": "RootNode (model correction matrix)"
    },
    {
      "children": [
        3
      ],
      "matrix": [
        1,
        0,
        0,
        0,
        0,
        0,
        1,
        0,
        0,
        -1,
        0,
        0,
        0,
        0,
        0,
        1
      ],
      "name": "94113e30c6ae4f43afaa92734247ff9b.fbx"
    },
    {
      "children": [
        4,
        6
      ],
      "name": "RootNode"
    },
    {
      "children": [
        5
      ],
      "name": "polySurface46"
    },
    {
      "mesh": 0,
      "name": "polySurface46_parker_0"
    },
    {
      "children": [
        7
      ],
      "name": "polySurface21"
    },
    {
      "mesh": 1,
      "name": "polySurface21_skirt_0"
    }
  ],
  "samplers": [
    {
      "magFilter": 9729,
      "minFilter": 9987,
      "wrapS": 10497,
      "wrapT": 10497
    }
  ],
  "scene": 0,
  "scenes": [
    {
      "name": "OSG_Scene",
      "nodes": [
        0
      ]
    }
  ],
  "textures": [
    {
      "sampler": 0,
      "source": 0
    },
    {
      "sampler": 0,
      "source": 1
    },
    {
      "sampler": 0,
      "source": 2
    },
    {
      "sampler": 0,
      "source": 3
    },
    {
      "sampler": 0,
      "source": 4
    },
    {
      "sampler": 0,
      "source": 5
    }
  ]
}

