ply
format ascii 1.0
comment Created by Blender 2.91.0 - www.blender.org
element vertex 24
property float x
property float y
property float z
property float nx
property float ny
property float nz
element face 12
property list uchar uint vertex_indices
end_header
130.000000 165.000000 65.000000 0.000000 1.000000 0.000000
82.000000 165.000000 225.000000 0.000000 1.000000 0.000000
240.000000 165.000000 272.000000 0.000000 1.000000 0.000000
290.000000 165.000000 114.000000 0.000000 1.000000 0.000000
290.000000 0.000000 114.000000 0.953398 0.000000 0.301706
290.000000 165.000000 114.000000 0.953398 0.000000 0.301706
240.000000 165.000000 272.000000 0.953398 0.000000 0.301706
240.000000 0.000000 272.000000 0.953398 0.000000 0.301706
130.000000 0.000000 65.000000 0.292825 0.000000 -0.956145
130.000000 165.000000 65.000000 0.292825 0.000000 -0.956145
290.000000 165.000000 114.000000 0.292825 0.000000 -0.956145
290.000000 0.000000 114.000000 0.292825 0.000000 -0.956145
82.000000 0.000000 225.000000 -0.957823 0.000000 -0.287332
82.000000 165.000000 225.000000 -0.957823 0.000000 -0.287332
130.000000 165.000000 65.000000 -0.957823 0.000000 -0.287332
130.000000 0.000000 65.000000 -0.957823 0.000000 -0.287332
240.000000 0.000000 272.000000 -0.285104 0.000000 0.958464
240.000000 165.000000 272.000000 -0.285104 0.000000 0.958464
82.000000 165.000000 225.000000 -0.285104 0.000000 0.958464
82.000000 0.000000 225.000000 -0.285104 0.000000 0.958464
290.000000 0.000000 114.000000 0.000000 -1.000000 0.000000
240.000000 0.000000 272.000000 0.000000 -1.000000 0.000000
82.000000 0.000000 225.000000 0.000000 -1.000000 0.000000
130.000000 0.000000 65.000000 0.000000 -1.000000 0.000000
3 0 1 2
3 0 2 3
3 4 5 6
3 4 6 7
3 8 9 10
3 8 10 11
3 12 13 14
3 12 14 15
3 16 17 18
3 16 18 19
3 20 21 22
3 20 22 23
