{
    "asset" : {
        "generator" : "Khronos glTF Blender I/O v1.7.33",
        "version" : "2.0"
    },
    "scene" : 0,
    "scenes" : [
        {
            "name" : "Scene",
            "nodes" : [
                0
            ]
        }
    ],
    "nodes" : [
        {
            "mesh" : 0,
            "name" : "bunny",
            "rotation" : [
                0.7071068286895752,
                0,
                0,
                0.7071067094802856
            ],
            "scale" : [
                0.6000000238418579,
                0.6000000238418579,
                0.6000000238418579
            ],
            "translation" : [
                0.07660882920026779,
                0.15834490954875946,
                -0.3223266303539276
            ]
        }
    ],
    "materials" : [
        {
            "doubleSided" : true,
            "name" : "disney",
            "pbrMetallicRoughness" : {
                "baseColorFactor" : [
                    0.5304561853408813,
                    0.4083440601825714,
                    0.48161134123802185,
                    1
                ],
                "metallicFactor" : 0,
                "roughnessFactor" : 0.4000000059604645
            }
        }
    ],
    "meshes" : [
        {
            "name" : "bunny",
            "primitives" : [
                {
                    "attributes" : {
                        "POSITION" : 0,
                        "NORMAL" : 1,
                        "TEXCOORD_0" : 2
                    },
                    "indices" : 3,
                    "material" : 0
                }
            ]
        }
    ],
    "accessors" : [
        {
            "bufferView" : 0,
            "componentType" : 5126,
            "count" : 72378,
            "max" : [
                0.6578999757766724,
                0.6894999742507935,
                -0.020999999716877937
            ],
            "min" : [
                -0.9559000134468079,
                -0.5429999828338623,
                -1.641800045967102
            ],
            "type" : "VEC3"
        },
        {
            "bufferView" : 1,
            "componentType" : 5126,
            "count" : 72378,
            "type" : "VEC3"
        },
        {
            "bufferView" : 2,
            "componentType" : 5126,
            "count" : 72378,
            "type" : "VEC2"
        },
        {
            "bufferView" : 3,
            "componentType" : 5125,
            "count" : 432138,
            "type" : "SCALAR"
        }
    ],
    "bufferViews" : [
        {
            "buffer" : 0,
            "byteLength" : 868536,
            "byteOffset" : 0
        },
        {
            "buffer" : 0,
            "byteLength" : 868536,
            "byteOffset" : 868536
        },
        {
            "buffer" : 0,
            "byteLength" : 579024,
            "byteOffset" : 1737072
        },
        {
            "buffer" : 0,
            "byteLength" : 1728552,
            "byteOffset" : 2316096
        }
    ],
    "buffers" : [
        {
            "byteLength" : 4044648,
            "uri" : "bunny.bin"
        }
    ]
}
