{
    "asset" : {
        "generator" : "Khronos glTF Blender I/O v1.7.33",
        "version" : "2.0"
    },
    "scene" : 0,
    "scenes" : [
        {
            "name" : "Scene",
            "nodes" : [
                0
            ]
        }
    ],
    "nodes" : [
        {
            "mesh" : 0,
            "name" : "Mesh003",
            "rotation" : [
                0.6532815098762512,
                -0.27059802412986755,
                0.27059808373451233,
                0.6532814502716064
            ],
            "scale" : [
                0.15000000596046448,
                0.15000000596046448,
                0.15000000596046448
            ],
            "translation" : [
                0,
                0,
                -0.19789397716522217
            ]
        }
    ],
    "meshes" : [
        {
            "name" : "Mesh003",
            "primitives" : [
                {
                    "attributes" : {
                        "POSITION" : 0,
                        "NORMAL" : 1,
                        "TEXCOORD_0" : 2
                    },
                    "indices" : 3
                }
            ]
        }
    ],
    "accessors" : [
        {
            "bufferView" : 0,
            "componentType" : 5126,
            "count" : 23938,
            "max" : [
                1.9239710569381714,
                1.9239710569381714,
                -4.583067893981934
            ],
            "min" : [
                -1.9239720106124878,
                -1.9239710569381714,
                -6.165119171142578
            ],
            "type" : "VEC3"
        },
        {
            "bufferView" : 1,
            "componentType" : 5126,
            "count" : 23938,
            "type" : "VEC3"
        },
        {
            "bufferView" : 2,
            "componentType" : 5126,
            "count" : 23938,
            "type" : "VEC2"
        },
        {
            "bufferView" : 3,
            "componentType" : 5123,
            "count" : 143616,
            "type" : "SCALAR"
        }
    ],
    "bufferViews" : [
        {
            "buffer" : 0,
            "byteLength" : 287256,
            "byteOffset" : 0
        },
        {
            "buffer" : 0,
            "byteLength" : 287256,
            "byteOffset" : 287256
        },
        {
            "buffer" : 0,
            "byteLength" : 191504,
            "byteOffset" : 574512
        },
        {
            "buffer" : 0,
            "byteLength" : 287232,
            "byteOffset" : 766016
        }
    ],
    "buffers" : [
        {
            "byteLength" : 1053248,
            "uri" : "Mesh003.bin"
        }
    ]
}
