{
    "asset" : {
        "generator" : "Khronos glTF Blender I/O v1.4.40",
        "version" : "2.0"
    },
    "extensionsUsed" : [
        "KHR_lights_punctual"
    ],
    "extensionsRequired" : [
        "KHR_lights_punctual"
    ],
    "extensions" : {
        "KHR_lights_punctual" : {
            "lights" : [
                {
                    "color" : [
                        1,
                        1,
                        1
                    ],
                    "intensity" : 1000,
                    "type" : "point",
                    "name" : "Light.001"
                }
            ]
        }
    },
    "scene" : 0,
    "scenes" : [
        {
            "name" : "Scene",
            "nodes" : [
                0,
                1,
                3,
                4,
                5,
                6,
                7,
                8,
                9,
                10,
                12
            ]
        }
    ],
    "nodes" : [
        {
            "mesh" : 0,
            "name" : "Cube"
        },
        {
            "name" : "Light_area",
            "rotation" : [
                0.16907575726509094,
                0.7558803558349609,
                -0.27217137813568115,
                0.570947527885437
            ],
            "translation" : [
                4.076245307922363,
                5.903861999511719,
                -1.0054539442062378
            ]
        },
        {
            "camera" : 0,
            "name" : "Camera_Orientation",
            "rotation" : [
                -0.7071067690849304,
                0,
                0,
                0.7071067690849304
            ]
        },
        {
            "children" : [
                2
            ],
            "name" : "Camera",
            "rotation" : [
                0.483536034822464,
                0.33687159419059753,
                -0.20870360732078552,
                0.7804827094078064
            ],
            "translation" : [
                7.358891487121582,
                4.958309173583984,
                6.925790786743164
            ]
        },
        {
            "mesh" : 1,
            "name" : "Visor",
            "rotation" : [
                0.7071068286895752,
                0,
                0,
                0.7071067094802856
            ]
        },
        {
            "mesh" : 2,
            "name" : "Legs",
            "rotation" : [
                0.7071068286895752,
                0,
                0,
                0.7071067094802856
            ]
        },
        {
            "mesh" : 3,
            "name" : "hands",
            "rotation" : [
                0.7071068286895752,
                0,
                0,
                0.7071067094802856
            ]
        },
        {
            "mesh" : 4,
            "name" : "Lights",
            "rotation" : [
                0.7071068286895752,
                0,
                0,
                0.7071067094802856
            ]
        },
        {
            "mesh" : 5,
            "name" : "Arms",
            "rotation" : [
                0.7071068286895752,
                0,
                0,
                0.7071067094802856
            ]
        },
        {
            "mesh" : 6,
            "name" : "Helmet",
            "rotation" : [
                0.7071068286895752,
                0,
                0,
                0.7071067094802856
            ]
        },
        {
            "mesh" : 7,
            "name" : "Body",
            "rotation" : [
                0.7071068286895752,
                0,
                0,
                0.7071067094802856
            ]
        },
        {
            "extensions" : {
                "KHR_lights_punctual" : {
                    "light" : 0
                }
            },
            "name" : "Light.001_Orientation",
            "rotation" : [
                -0.7071067690849304,
                0,
                0,
                0.7071067690849304
            ]
        },
        {
            "children" : [
                11
            ],
            "name" : "Light.001",
            "rotation" : [
                0.16907575726509094,
                0.7558803558349609,
                -0.27217137813568115,
                0.570947527885437
            ],
            "translation" : [
                6.523212432861328,
                5.903861999511719,
                -1.0054539442062378
            ]
        }
    ],
    "cameras" : [
        {
            "name" : "Camera",
            "perspective" : {
                "aspectRatio" : 1.7777777777777777,
                "yfov" : 0.39959652046304894,
                "zfar" : 100,
                "znear" : 0.10000000149011612
            },
            "type" : "perspective"
        }
    ],
    "materials" : [
        {
            "doubleSided" : true,
            "name" : "Material",
            "pbrMetallicRoughness" : {
                "baseColorFactor" : [
                    0.800000011920929,
                    0.800000011920929,
                    0.800000011920929,
                    1
                ],
                "metallicFactor" : 0,
                "roughnessFactor" : 0.4000000059604645
            }
        },
        {
            "doubleSided" : true,
            "name" : "Glass",
            "normalTexture" : {
                "index" : 0,
                "texCoord" : 0
            },
            "pbrMetallicRoughness" : {
                "baseColorTexture" : {
                    "index" : 1,
                    "texCoord" : 0
                },
                "metallicFactor" : 0,
                "roughnessFactor" : 0.6732679605484009
            }
        },
        {
            "doubleSided" : true,
            "name" : "Leg",
            "normalTexture" : {
                "index" : 2,
                "texCoord" : 0
            },
            "pbrMetallicRoughness" : {
                "baseColorTexture" : {
                    "index" : 3,
                    "texCoord" : 0
                },
                "metallicFactor" : 0,
                "roughnessFactor" : 0.6732679605484009
            }
        },
        {
            "doubleSided" : true,
            "name" : "Hand",
            "normalTexture" : {
                "index" : 4,
                "texCoord" : 0
            },
            "pbrMetallicRoughness" : {
                "baseColorTexture" : {
                    "index" : 5,
                    "texCoord" : 0
                },
                "metallicFactor" : 0,
                "roughnessFactor" : 0.6732679605484009
            }
        },
        {
            "doubleSided" : true,
            "name" : "Arm",
            "normalTexture" : {
                "index" : 6,
                "texCoord" : 0
            },
            "pbrMetallicRoughness" : {
                "baseColorTexture" : {
                    "index" : 7,
                    "texCoord" : 0
                },
                "metallicFactor" : 0,
                "roughnessFactor" : 0.6732679605484009
            }
        },
        {
            "doubleSided" : true,
            "name" : "Helmet",
            "normalTexture" : {
                "index" : 8,
                "texCoord" : 0
            },
            "pbrMetallicRoughness" : {
                "baseColorTexture" : {
                    "index" : 9,
                    "texCoord" : 0
                },
                "metallicFactor" : 0,
                "roughnessFactor" : 0.6732679605484009
            }
        },
        {
            "doubleSided" : true,
            "name" : "Body",
            "normalTexture" : {
                "index" : 10,
                "texCoord" : 0
            },
            "pbrMetallicRoughness" : {
                "baseColorTexture" : {
                    "index" : 11,
                    "texCoord" : 0
                },
                "metallicFactor" : 0,
                "roughnessFactor" : 0.6732679605484009
            }
        }
    ],
    "meshes" : [
        {
            "name" : "Cube",
            "primitives" : [
                {
                    "attributes" : {
                        "POSITION" : 0,
                        "NORMAL" : 1,
                        "TEXCOORD_0" : 2
                    },
                    "indices" : 3,
                    "material" : 0
                }
            ]
        },
        {
            "name" : "Visor",
            "primitives" : [
                {
                    "attributes" : {
                        "POSITION" : 4,
                        "NORMAL" : 5,
                        "TEXCOORD_0" : 6
                    },
                    "indices" : 7,
                    "material" : 1
                }
            ]
        },
        {
            "name" : "Legs",
            "primitives" : [
                {
                    "attributes" : {
                        "POSITION" : 8,
                        "NORMAL" : 9,
                        "TEXCOORD_0" : 10
                    },
                    "indices" : 11,
                    "material" : 2
                }
            ]
        },
        {
            "name" : "hands",
            "primitives" : [
                {
                    "attributes" : {
                        "POSITION" : 12,
                        "NORMAL" : 13,
                        "TEXCOORD_0" : 14
                    },
                    "indices" : 15,
                    "material" : 3
                }
            ]
        },
        {
            "name" : "Lights",
            "primitives" : [
                {
                    "attributes" : {
                        "POSITION" : 16,
                        "NORMAL" : 17,
                        "TEXCOORD_0" : 18
                    },
                    "indices" : 19,
                    "material" : 1
                }
            ]
        },
        {
            "name" : "Arms",
            "primitives" : [
                {
                    "attributes" : {
                        "POSITION" : 20,
                        "NORMAL" : 21,
                        "TEXCOORD_0" : 22
                    },
                    "indices" : 23,
                    "material" : 4
                }
            ]
        },
        {
            "name" : "Helmet",
            "primitives" : [
                {
                    "attributes" : {
                        "POSITION" : 24,
                        "NORMAL" : 25,
                        "TEXCOORD_0" : 26
                    },
                    "indices" : 27,
                    "material" : 5
                }
            ]
        },
        {
            "name" : "Body",
            "primitives" : [
                {
                    "attributes" : {
                        "POSITION" : 28,
                        "NORMAL" : 29,
                        "TEXCOORD_0" : 30
                    },
                    "indices" : 31,
                    "material" : 6
                }
            ]
        }
    ],
    "textures" : [
        {
            "sampler" : 0,
            "source" : 0
        },
        {
            "sampler" : 0,
            "source" : 1
        },
        {
            "sampler" : 0,
            "source" : 2
        },
        {
            "sampler" : 0,
            "source" : 3
        },
        {
            "sampler" : 0,
            "source" : 4
        },
        {
            "sampler" : 0,
            "source" : 5
        },
        {
            "sampler" : 0,
            "source" : 6
        },
        {
            "sampler" : 0,
            "source" : 7
        },
        {
            "sampler" : 0,
            "source" : 8
        },
        {
            "sampler" : 0,
            "source" : 9
        },
        {
            "sampler" : 0,
            "source" : 10
        },
        {
            "sampler" : 0,
            "source" : 11
        }
    ],
    "images" : [
        {
            "mimeType" : "image/png",
            "name" : "glass_ddn",
            "uri" : "glass_ddn.png"
        },
        {
            "mimeType" : "image/png",
            "name" : "glass_dif",
            "uri" : "glass_dif.png"
        },
        {
            "mimeType" : "image/png",
            "name" : "leg_showroom_ddn",
            "uri" : "leg_showroom_ddn.png"
        },
        {
            "mimeType" : "image/png",
            "name" : "leg_dif",
            "uri" : "leg_dif.png"
        },
        {
            "mimeType" : "image/png",
            "name" : "hand_showroom_ddn",
            "uri" : "hand_showroom_ddn.png"
        },
        {
            "mimeType" : "image/png",
            "name" : "hand_dif",
            "uri" : "hand_dif.png"
        },
        {
            "mimeType" : "image/png",
            "name" : "arm_showroom_ddn",
            "uri" : "arm_showroom_ddn.png"
        },
        {
            "mimeType" : "image/png",
            "name" : "arm_dif",
            "uri" : "arm_dif.png"
        },
        {
            "mimeType" : "image/png",
            "name" : "helmet_showroom_ddn",
            "uri" : "helmet_showroom_ddn.png"
        },
        {
            "mimeType" : "image/png",
            "name" : "helmet_diff",
            "uri" : "helmet_diff.png"
        },
        {
            "mimeType" : "image/png",
            "name" : "body_showroom_ddn",
            "uri" : "body_showroom_ddn.png"
        },
        {
            "mimeType" : "image/png",
            "name" : "body_dif",
            "uri" : "body_dif.png"
        }
    ],
    "accessors" : [
        {
            "bufferView" : 0,
            "componentType" : 5126,
            "count" : 24,
            "max" : [
                1,
                1,
                1
            ],
            "min" : [
                -1,
                -1,
                -1
            ],
            "type" : "VEC3"
        },
        {
            "bufferView" : 1,
            "componentType" : 5126,
            "count" : 24,
            "type" : "VEC3"
        },
        {
            "bufferView" : 2,
            "componentType" : 5126,
            "count" : 24,
            "type" : "VEC2"
        },
        {
            "bufferView" : 3,
            "componentType" : 5123,
            "count" : 36,
            "type" : "SCALAR"
        },
        {
            "bufferView" : 4,
            "componentType" : 5126,
            "count" : 52,
            "max" : [
                0.6437270045280457,
                0.6739469766616821,
                -13.98453426361084
            ],
            "min" : [
                -0.6241999864578247,
                0.20199300348758698,
                -14.536142349243164
            ],
            "type" : "VEC3"
        },
        {
            "bufferView" : 5,
            "componentType" : 5126,
            "count" : 52,
            "type" : "VEC3"
        },
        {
            "bufferView" : 6,
            "componentType" : 5126,
            "count" : 52,
            "type" : "VEC2"
        },
        {
            "bufferView" : 7,
            "componentType" : 5123,
            "count" : 156,
            "type" : "SCALAR"
        },
        {
            "bufferView" : 8,
            "componentType" : 5126,
            "count" : 3107,
            "max" : [
                2.356213092803955,
                1.214568018913269,
                -4.5000000682193786e-05
            ],
            "min" : [
                -2.354461908340454,
                -1.384613037109375,
                -9.214757919311523
            ],
            "type" : "VEC3"
        },
        {
            "bufferView" : 9,
            "componentType" : 5126,
            "count" : 3107,
            "type" : "VEC3"
        },
        {
            "bufferView" : 10,
            "componentType" : 5126,
            "count" : 3107,
            "type" : "VEC2"
        },
        {
            "bufferView" : 11,
            "componentType" : 5123,
            "count" : 15222,
            "type" : "SCALAR"
        },
        {
            "bufferView" : 12,
            "componentType" : 5126,
            "count" : 4861,
            "max" : [
                3.994291067123413,
                1.719938039779663,
                -7.344963073730469
            ],
            "min" : [
                -3.994462013244629,
                0.4230920076370239,
                -9.068742752075195
            ],
            "type" : "VEC3"
        },
        {
            "bufferView" : 13,
            "componentType" : 5126,
            "count" : 4861,
            "type" : "VEC3"
        },
        {
            "bufferView" : 14,
            "componentType" : 5126,
            "count" : 4861,
            "type" : "VEC2"
        },
        {
            "bufferView" : 15,
            "componentType" : 5123,
            "count" : 19350,
            "type" : "SCALAR"
        },
        {
            "bufferView" : 16,
            "componentType" : 5126,
            "count" : 78,
            "max" : [
                0.5793939828872681,
                0.43545299768447876,
                -14.000758171081543
            ],
            "min" : [
                -0.5598679780960083,
                0.33566001057624817,
                -14.114324569702148
            ],
            "type" : "VEC3"
        },
        {
            "bufferView" : 17,
            "componentType" : 5126,
            "count" : 78,
            "type" : "VEC3"
        },
        {
            "bufferView" : 18,
            "componentType" : 5126,
            "count" : 78,
            "type" : "VEC2"
        },
        {
            "bufferView" : 19,
            "componentType" : 5123,
            "count" : 78,
            "type" : "SCALAR"
        },
        {
            "bufferView" : 20,
            "componentType" : 5126,
            "count" : 1506,
            "max" : [
                3.9108269214630127,
                1.1816099882125854,
                -8.719925880432129
            ],
            "min" : [
                -3.9071900844573975,
                -1.4715869426727295,
                -12.986776351928711
            ],
            "type" : "VEC3"
        },
        {
            "bufferView" : 21,
            "componentType" : 5126,
            "count" : 1506,
            "type" : "VEC3"
        },
        {
            "bufferView" : 22,
            "componentType" : 5126,
            "count" : 1506,
            "type" : "VEC2"
        },
        {
            "bufferView" : 23,
            "componentType" : 5123,
            "count" : 6804,
            "type" : "SCALAR"
        },
        {
            "bufferView" : 24,
            "componentType" : 5126,
            "count" : 1619,
            "max" : [
                0.798317015171051,
                0.7210969924926758,
                -12.646074295043945
            ],
            "min" : [
                -0.7787899971008301,
                -1.1108729839324951,
                -15.412224769592285
            ],
            "type" : "VEC3"
        },
        {
            "bufferView" : 25,
            "componentType" : 5126,
            "count" : 1619,
            "type" : "VEC3"
        },
        {
            "bufferView" : 26,
            "componentType" : 5126,
            "count" : 1619,
            "type" : "VEC2"
        },
        {
            "bufferView" : 27,
            "componentType" : 5123,
            "count" : 7248,
            "type" : "SCALAR"
        },
        {
            "bufferView" : 28,
            "componentType" : 5126,
            "count" : 1865,
            "max" : [
                1.810829997062683,
                1.2154849767684937,
                -8.330565452575684
            ],
            "min" : [
                -1.807155966758728,
                -1.719694972038269,
                -13.960199356079102
            ],
            "type" : "VEC3"
        },
        {
            "bufferView" : 29,
            "componentType" : 5126,
            "count" : 1865,
            "type" : "VEC3"
        },
        {
            "bufferView" : 30,
            "componentType" : 5126,
            "count" : 1865,
            "type" : "VEC2"
        },
        {
            "bufferView" : 31,
            "componentType" : 5123,
            "count" : 8316,
            "type" : "SCALAR"
        }
    ],
    "bufferViews" : [
        {
            "buffer" : 0,
            "byteLength" : 288,
            "byteOffset" : 0
        },
        {
            "buffer" : 0,
            "byteLength" : 288,
            "byteOffset" : 288
        },
        {
            "buffer" : 0,
            "byteLength" : 192,
            "byteOffset" : 576
        },
        {
            "buffer" : 0,
            "byteLength" : 72,
            "byteOffset" : 768
        },
        {
            "buffer" : 0,
            "byteLength" : 624,
            "byteOffset" : 840
        },
        {
            "buffer" : 0,
            "byteLength" : 624,
            "byteOffset" : 1464
        },
        {
            "buffer" : 0,
            "byteLength" : 416,
            "byteOffset" : 2088
        },
        {
            "buffer" : 0,
            "byteLength" : 312,
            "byteOffset" : 2504
        },
        {
            "buffer" : 0,
            "byteLength" : 37284,
            "byteOffset" : 2816
        },
        {
            "buffer" : 0,
            "byteLength" : 37284,
            "byteOffset" : 40100
        },
        {
            "buffer" : 0,
            "byteLength" : 24856,
            "byteOffset" : 77384
        },
        {
            "buffer" : 0,
            "byteLength" : 30444,
            "byteOffset" : 102240
        },
        {
            "buffer" : 0,
            "byteLength" : 58332,
            "byteOffset" : 132684
        },
        {
            "buffer" : 0,
            "byteLength" : 58332,
            "byteOffset" : 191016
        },
        {
            "buffer" : 0,
            "byteLength" : 38888,
            "byteOffset" : 249348
        },
        {
            "buffer" : 0,
            "byteLength" : 38700,
            "byteOffset" : 288236
        },
        {
            "buffer" : 0,
            "byteLength" : 936,
            "byteOffset" : 326936
        },
        {
            "buffer" : 0,
            "byteLength" : 936,
            "byteOffset" : 327872
        },
        {
            "buffer" : 0,
            "byteLength" : 624,
            "byteOffset" : 328808
        },
        {
            "buffer" : 0,
            "byteLength" : 156,
            "byteOffset" : 329432
        },
        {
            "buffer" : 0,
            "byteLength" : 18072,
            "byteOffset" : 329588
        },
        {
            "buffer" : 0,
            "byteLength" : 18072,
            "byteOffset" : 347660
        },
        {
            "buffer" : 0,
            "byteLength" : 12048,
            "byteOffset" : 365732
        },
        {
            "buffer" : 0,
            "byteLength" : 13608,
            "byteOffset" : 377780
        },
        {
            "buffer" : 0,
            "byteLength" : 19428,
            "byteOffset" : 391388
        },
        {
            "buffer" : 0,
            "byteLength" : 19428,
            "byteOffset" : 410816
        },
        {
            "buffer" : 0,
            "byteLength" : 12952,
            "byteOffset" : 430244
        },
        {
            "buffer" : 0,
            "byteLength" : 14496,
            "byteOffset" : 443196
        },
        {
            "buffer" : 0,
            "byteLength" : 22380,
            "byteOffset" : 457692
        },
        {
            "buffer" : 0,
            "byteLength" : 22380,
            "byteOffset" : 480072
        },
        {
            "buffer" : 0,
            "byteLength" : 14920,
            "byteOffset" : 502452
        },
        {
            "buffer" : 0,
            "byteLength" : 16632,
            "byteOffset" : 517372
        }
    ],
    "samplers" : [
        {
            "magFilter" : 9729,
            "minFilter" : 9986
        }
    ],
    "buffers" : [
        {
            "byteLength" : 534004,
            "uri" : "scene.bin"
        }
    ]
}
